<svg xmlns="http://www.w3.org/2000/svg" viewBox="0 0 240 240" role="img" aria-labelledby="title">
  <title>Slack</title>
  <g fill="none">
    <path d="M97.5 0C86.1 0 76.8 9.3 76.8 20.7c0 11.4 9.3 20.7 20.7 20.7h20.7V20.7C118.2 9.3 108.9 0 97.5 0" fill="#E01E5A"/>
    <path d="M97.5 55.2H20.7C9.3 55.2 0 64.5 0 75.9s9.3 20.7 20.7 20.7h76.8c11.4 0 20.7-9.3 20.7-20.7s-9.3-20.7-20.7-20.7" fill="#E01E5A"/>
    <path d="M240 75.9c0-11.4-9.3-20.7-20.7-20.7-11.4 0-20.7 9.3-20.7 20.7v20.7h20.7c11.4 0 20.7-9.3 20.7-20.7" fill="#2EB67D"/>
    <path d="M184.8 75.9V20.7C184.8 9.3 175.5 0 164.1 0c-11.4 0-20.7 9.3-20.7 20.7v55.2c0 11.4 9.3 20.7 20.7 20.7 11.4 0 20.7-9.3 20.7-20.7" fill="#2EB67D"/>
    <path d="M164.1 240c11.4 0 20.7-9.3 20.7-20.7 0-11.4-9.3-20.7-20.7-20.7h-20.7v20.7c0 11.4 9.3 20.7 20.7 20.7" fill="#ECB22E"/>
    <path d="M164.1 184.8h76.8c11.4 0 20.7-9.3 20.7-20.7 0-11.4-9.3-20.7-20.7-20.7h-76.8c-11.4 0-20.7 9.3-20.7 20.7 0 11.4 9.3 20.7 20.7 20.7" fill="#ECB22E"/>
    <path d="M0 164.1c0 11.4 9.3 20.7 20.7 20.7 11.4 0 20.7-9.3 20.7-20.7v-20.7H20.7C9.3 143.4 0 152.7 0 164.1" fill="#36C5F0"/>
    <path d="M55.2 164.1v55.2c0 11.4 9.3 20.7 20.7 20.7 11.4 0 20.7-9.3 20.7-20.7v-55.2c0-11.4-9.3-20.7-20.7-20.7-11.4 0-20.7 9.3-20.7 20.7" fill="#36C5F0"/>
  </g>
</svg>
